<svg width="53" height="53" viewBox="0 0 53 53" fill="none" xmlns="http://www.w3.org/2000/svg">
<path d="M17.6668 44.1666H8.8335V41.9583C8.8335 35.3333 15.4585 30.9166 15.4585 30.9166V19.875C15.4585 11.0416 22.0835 2.20831 26.5002 2.20831C30.9168 2.20831 37.5418 11.0416 37.5418 19.875V30.9166C37.5418 30.9166 44.1668 35.3333 44.1668 41.9583V44.1666H35.3335M17.6668 44.1666L22.0835 50.7916H30.9168L35.3335 44.1666M17.6668 44.1666H35.3335M26.5002 19.875C27.0858 19.875 27.6475 19.6423 28.0617 19.2282C28.4758 18.814 28.7085 18.2523 28.7085 17.6666C28.7085 17.081 28.4758 16.5193 28.0617 16.1051C27.6475 15.691 27.0858 15.4583 26.5002 15.4583C25.9145 15.4583 25.3528 15.691 24.9386 16.1051C24.5245 16.5193 24.2918 17.081 24.2918 17.6666C24.2918 18.2523 24.5245 18.814 24.9386 19.2282C25.3528 19.6423 25.9145 19.875 26.5002 19.875Z" stroke="black" stroke-width="3"/>
</svg>
